# xmcd
#
# Track frame offsets:
#	150
#	13151
#	26845
#	40497
#	59452
#	74057
#	87803
#	103025
#	113434
#	124297
#
# Disc length: 1857
#
# Revision: 2
# Processed by: cddbd v1.5.1PL0 Copyright (c) Steve Scherf et al.
# Submitted via: DiscPlay 4.0.4
# Normalized: r1:DSETVAR1
#
DISCID=8c073f0a
DTITLE=Various Artist - New Country 1997 Holiday Special
DYEAR=1900
DGENRE=
TTITLE0=Asleep At The Wheel - Jingle Bell Boogie
TTITLE1=5 Chinese Brothers - Honky Tonk Christmas
TTITLE2=Nitty Gritty Dirt Band - We Three Kings
TTITLE3=Sawyer Brown - Sweet Mary Cried
TTITLE4=Dolly Parton - Silent Night
TTITLE5=Burns Sisters - Songs We Love
TTITLE6=Tim and Mollie O'Brien - Christ Was Born in Bethlehem
TTITLE7=Ray Stevens - Redneck Christmas
TTITLE8=Willie Nelson - Hark the Herald Angels Sing
TTITLE9=Bill Keith - Auld Lang Syne
EXTD=
EXTT0=
EXTT1=
EXTT2=
EXTT3=
EXTT4=
EXTT5=
EXTT6=
EXTT7=
EXTT8=
EXTT9=
PLAYORDER=
